<svg width="4015" height="1692" xmlns="http://www.w3.org/2000/svg" xmlns:xlink="http://www.w3.org/1999/xlink" xml:space="preserve" overflow="hidden"><g transform="translate(-183 -407)"><g><path d="M1000.5 1466 3447.5 1466 3447.5 1438.5 3502.5 1493.5 3447.5 1548.5 3447.5 1521 1000.5 1521Z" stroke="#042433" stroke-width="6.875" stroke-linecap="butt" stroke-linejoin="miter" stroke-miterlimit="8" stroke-opacity="1" fill="#AEAEAE" fill-rule="evenodd" fill-opacity="1"/><rect x="2819.5" y="621.5" width="1084" height="316" stroke="#000000" stroke-width="6.875" stroke-linecap="butt" stroke-linejoin="miter" stroke-miterlimit="8" stroke-opacity="1" fill="#FFFFFF" fill-opacity="1"/><text fill="#000000" fill-opacity="1" font-family="Times New Roman,Times New Roman_MSFontService,sans-serif" font-style="normal" font-variant="normal" font-weight="700" font-stretch="normal" font-size="92" text-anchor="start" direction="ltr" writing-mode="lr-tb" unicode-bidi="normal" text-decoration="none" transform="matrix(1 0 0 1 3016.34 758)">Fine</text><text fill="#000000" fill-opacity="1" font-family="Times New Roman,Times New Roman_MSFontService,sans-serif" font-style="normal" font-variant="normal" font-weight="700" font-stretch="normal" font-size="92" text-anchor="start" direction="ltr" writing-mode="lr-tb" unicode-bidi="normal" text-decoration="none" transform="matrix(1 0 0 1 3189.36 758)">-</text><text fill="#000000" fill-opacity="1" font-family="Times New Roman,Times New Roman_MSFontService,sans-serif" font-style="normal" font-variant="normal" font-weight="700" font-stretch="normal" font-size="92" text-anchor="start" direction="ltr" writing-mode="lr-tb" unicode-bidi="normal" text-decoration="none" transform="matrix(1 0 0 1 3219.73 758)">tuned model </text><text fill="#000000" fill-opacity="1" font-family="Times New Roman,Times New Roman_MSFontService,sans-serif" font-style="normal" font-variant="normal" font-weight="700" font-stretch="normal" font-size="92" text-anchor="start" direction="ltr" writing-mode="lr-tb" unicode-bidi="normal" text-decoration="none" transform="matrix(1 0 0 1 3116.83 868)">GemmaSQL</text><rect x="561.5" y="617.5" width="960" height="316" stroke="#000000" stroke-width="6.875" stroke-linecap="butt" stroke-linejoin="miter" stroke-miterlimit="8" stroke-opacity="1" fill="#FFFFFF" fill-opacity="1"/><text fill="#000000" fill-opacity="1" font-family="Times New Roman,Times New Roman_MSFontService,sans-serif" font-style="normal" font-variant="normal" font-weight="700" font-stretch="normal" font-size="92" text-anchor="start" direction="ltr" writing-mode="lr-tb" unicode-bidi="normal" text-decoration="none" transform="matrix(1 0 0 1 732.106 754)">Spider Training </text><text fill="#000000" fill-opacity="1" font-family="Times New Roman,Times New Roman_MSFontService,sans-serif" font-style="normal" font-variant="normal" font-weight="700" font-stretch="normal" font-size="92" text-anchor="start" direction="ltr" writing-mode="lr-tb" unicode-bidi="normal" text-decoration="none" transform="matrix(1 0 0 1 901.506 864)">dataset</text><path d="M1521.02 768.125 2783.97 772.003 2783.93 785.753 1520.98 781.875ZM2777.14 758.232 2818.33 778.983 2777.01 799.482Z" fill="#000000" fill-rule="nonzero" fill-opacity="1"/><path d="M1757.35 729.706 2318.81 729.706 2318.81 830.706 1757.35 830.706Z" fill="#C0C0C0" fill-rule="evenodd" fill-opacity="1"/><path d="M2318.81 729.706 2349.17 729.706 2349.17 830.706 2318.81 830.706Z" fill="#C0C0C0" fill-rule="evenodd" fill-opacity="1"/><path d="M2349.17 729.706 2582.92 729.706 2582.92 830.706 2349.17 830.706Z" fill="#C0C0C0" fill-rule="evenodd" fill-opacity="1"/><path d="M1942.13 839.706 2122.6 839.706 2122.6 940.706 1942.13 940.706Z" fill="#C0C0C0" fill-rule="evenodd" fill-opacity="1"/><path d="M2122.6 839.706 2398.17 839.706 2398.17 940.706 2122.6 940.706Z" fill="#C0C0C0" fill-rule="evenodd" fill-opacity="1"/><text fill="#000000" fill-opacity="1" font-family="Times New Roman,Times New Roman_MSFontService,sans-serif" font-style="italic" font-variant="normal" font-weight="400" font-stretch="normal" font-size="92" text-anchor="start" direction="ltr" writing-mode="lr-tb" unicode-bidi="normal" text-decoration="none" transform="matrix(1 0 0 1 1757.35 810)">Supervised fine</text><text fill="#000000" fill-opacity="1" font-family="Times New Roman,Times New Roman_MSFontService,sans-serif" font-style="italic" font-variant="normal" font-weight="400" font-stretch="normal" font-size="92" text-anchor="start" direction="ltr" writing-mode="lr-tb" unicode-bidi="normal" text-decoration="none" transform="matrix(1 0 0 1 2318.81 810)">-</text><text fill="#000000" fill-opacity="1" font-family="Times New Roman,Times New Roman_MSFontService,sans-serif" font-style="italic" font-variant="normal" font-weight="400" font-stretch="normal" font-size="92" text-anchor="start" direction="ltr" writing-mode="lr-tb" unicode-bidi="normal" text-decoration="none" transform="matrix(1 0 0 1 2349.17 810)">tuning</text><text fill="#000000" fill-opacity="1" font-family="Times New Roman,Times New Roman_MSFontService,sans-serif" font-style="italic" font-variant="normal" font-weight="400" font-stretch="normal" font-size="92" text-anchor="start" direction="ltr" writing-mode="lr-tb" unicode-bidi="normal" text-decoration="none" transform="matrix(1 0 0 1 1942.13 920)">with </text><text fill="#000000" fill-opacity="1" font-family="Times New Roman,Times New Roman_MSFontService,sans-serif" font-style="italic" font-variant="normal" font-weight="400" font-stretch="normal" font-size="92" text-anchor="start" direction="ltr" writing-mode="lr-tb" unicode-bidi="normal" text-decoration="none" transform="matrix(1 0 0 1 2122.6 920)">QLoRA</text><rect x="210.5" y="419.5" width="3980" height="689" stroke="#000000" stroke-width="6.875" stroke-linecap="butt" stroke-linejoin="miter" stroke-miterlimit="8" stroke-opacity="1" fill="none"/><rect x="210.5" y="1106.5" width="3980" height="946" stroke="#000000" stroke-width="6.875" stroke-linecap="butt" stroke-linejoin="miter" stroke-miterlimit="8" stroke-opacity="1" fill="none"/><path d="M241.406 449.003 556.602 449.003 556.602 550.003 241.406 550.003Z" fill="#C0C0C0" fill-rule="evenodd" fill-opacity="1"/><text fill="#000000" fill-opacity="1" font-family="Times New Roman,Times New Roman_MSFontService,sans-serif" font-style="italic" font-variant="normal" font-weight="400" font-stretch="normal" font-size="92" text-anchor="start" direction="ltr" writing-mode="lr-tb" unicode-bidi="normal" text-decoration="none" transform="matrix(1 0 0 1 241.406 529)">Training</text><path d="M243.138 1131.55 585.215 1131.55 585.215 1232.55 243.138 1232.55Z" fill="#C0C0C0" fill-rule="evenodd" fill-opacity="1"/><text fill="#000000" fill-opacity="1" font-family="Times New Roman,Times New Roman_MSFontService,sans-serif" font-style="italic" font-variant="normal" font-weight="400" font-stretch="normal" font-size="92" text-anchor="start" direction="ltr" writing-mode="lr-tb" unicode-bidi="normal" text-decoration="none" transform="matrix(1 0 0 1 243.138 1212)">Inference</text><rect x="357.5" y="1335.5" width="608" height="316" stroke="#000000" stroke-width="6.875" stroke-linecap="butt" stroke-linejoin="miter" stroke-miterlimit="8" stroke-opacity="1" fill="#FFFFFF" fill-opacity="1"/><text fill="#000000" fill-opacity="1" font-family="Times New Roman,Times New Roman_MSFontService,sans-serif" font-style="normal" font-variant="normal" font-weight="700" font-stretch="normal" font-size="92" text-anchor="start" direction="ltr" writing-mode="lr-tb" unicode-bidi="normal" text-decoration="none" transform="matrix(1 0 0 1 496.933 1472)">User NL </text><text fill="#000000" fill-opacity="1" font-family="Times New Roman,Times New Roman_MSFontService,sans-serif" font-style="normal" font-variant="normal" font-weight="700" font-stretch="normal" font-size="92" text-anchor="start" direction="ltr" writing-mode="lr-tb" unicode-bidi="normal" text-decoration="none" transform="matrix(1 0 0 1 485.269 1582)">Question</text><path d="M1.50332-6.70862 41.7551 2.31132 38.7484 15.7286-1.50332 6.70862ZM55.1723 5.31797 95.4241 14.3379 92.4174 27.7552 52.1657 18.7352ZM108.841 17.3446 149.093 26.3645 146.086 39.7817 105.835 30.7618ZM162.51 29.3711 202.762 38.3911 199.755 51.8083 159.504 42.7884ZM216.179 41.3977 256.431 50.4177 253.424 63.8349 213.173 54.815ZM269.848 53.4243 310.1 62.4443 307.093 75.8615 266.842 66.8416ZM323.517 65.4509 363.769 74.4708 360.762 87.8881 320.511 78.8682ZM377.186 77.4775 417.438 86.4974 414.431 99.9147 374.18 90.8947ZM430.855 89.5041 471.107 98.524 468.1 111.941 427.849 102.921ZM484.524 101.531 524.776 110.551 521.769 123.968 481.518 114.948ZM538.193 113.557 578.445 122.577 575.438 135.994 535.187 126.975ZM591.862 125.584 632.114 134.604 629.107 148.021 588.856 139.001ZM645.531 137.61 685.783 146.63 682.776 160.048 642.525 151.028ZM699.2 149.637 739.452 158.657 736.445 172.074 696.194 163.054ZM752.869 161.664 793.121 170.684 790.114 184.101 749.863 175.081ZM806.538 173.69 846.79 182.71 843.783 196.127 803.532 187.107ZM860.207 185.717 900.459 194.737 897.452 208.154 857.201 199.134ZM913.876 197.743 954.128 206.763 951.122 220.181 910.87 211.161ZM967.545 209.77 1007.8 218.79 1004.79 232.207 964.539 223.187ZM1021.21 221.797 1061.47 230.816 1058.46 244.234 1018.21 235.214ZM1074.88 233.823 1115.14 242.843 1112.13 256.26 1071.88 247.24ZM1128.55 245.85 1168.8 254.87 1165.8 268.287 1125.55 259.267ZM1182.22 257.876 1222.47 266.896 1219.47 280.313 1179.21 271.294ZM1235.89 269.903 1276.14 278.923 1273.14 292.34 1232.88 283.32ZM1289.56 281.929 1329.81 290.949 1326.8 304.367 1286.55 295.347ZM1343.23 293.956 1383.48 302.976 1380.47 316.393 1340.22 307.373ZM1396.9 305.983 1437.15 315.003 1434.14 328.42 1393.89 319.4ZM1450.57 318.009 1490.82 327.029 1487.81 340.446 1447.56 331.426ZM1504.24 330.036 1544.49 339.056 1541.48 352.473 1501.23 343.453ZM1557.9 342.062 1598.16 351.082 1595.15 364.5 1554.9 355.48ZM1611.57 354.089 1651.83 363.109 1648.82 376.526 1608.57 367.506ZM1665.24 366.116 1705.49 375.136 1702.49 388.553 1662.24 379.533ZM1718.91 378.142 1759.16 387.162 1756.16 400.579 1715.9 391.559ZM1772.58 390.169 1812.83 399.189 1809.83 412.606 1769.57 403.586ZM1812.32 384.982 1874.89 420.142 1803.3 425.234Z" fill="#000000" fill-rule="nonzero" fill-opacity="1" transform="matrix(-1 0 0 1 3360.89 937)"/><path d="M2.41251-6.43781 41.0394 8.03723 36.2144 20.9129-2.41251 6.43781ZM53.915 12.8622 92.5419 27.3373 87.7169 40.2129 49.09 25.7379ZM105.418 32.1623 144.044 46.6374 139.219 59.513 100.592 45.0379ZM156.92 51.4624 195.547 65.9374 190.722 78.813 152.095 64.338ZM208.423 70.7624 247.049 85.2375 242.224 98.1131 203.598 83.638ZM259.925 90.0625 298.552 104.538 293.727 117.413 255.1 102.938ZM311.428 109.363 350.054 123.838 345.229 136.713 306.603 122.238ZM362.93 128.663 401.557 143.138 396.732 156.013 358.105 141.538ZM414.433 147.963 453.059 162.438 448.234 175.313 409.607 160.838ZM465.935 167.263 504.562 181.738 499.737 194.613 461.11 180.138ZM517.438 186.563 556.064 201.038 551.239 213.913 512.612 199.438ZM568.94 205.863 607.567 220.338 602.742 233.214 564.115 218.738ZM620.443 225.163 659.069 239.638 654.244 252.514 615.617 238.039ZM671.945 244.463 710.572 258.938 705.747 271.814 667.12 257.339ZM723.448 263.763 762.074 278.238 757.249 291.114 718.622 276.639ZM774.95 283.063 813.577 297.538 808.752 310.414 770.125 295.939ZM826.453 302.363 865.079 316.838 860.254 329.714 821.628 315.239ZM877.955 321.663 916.582 336.138 911.757 349.014 873.13 334.539ZM929.458 340.963 968.084 355.438 963.259 368.314 924.633 353.839ZM980.96 360.263 1019.59 374.738 1014.76 387.614 976.135 373.139ZM1032.46 379.563 1065.63 391.991 1060.8 404.867 1027.64 392.439ZM1064.01 376.703 1121.15 420.142 1049.54 415.33Z" fill="#000000" fill-rule="nonzero" fill-opacity="1" transform="matrix(-1 0 0 1 3361.15 937)"/><path d="M5.17524-4.52576 32.3298 26.5257 21.9793 35.5772-5.17524 4.52576ZM41.3813 36.8762 68.5359 67.9276 58.1854 76.9792 31.0308 45.9277ZM77.5874 78.2781 104.742 109.33 94.3914 118.381 67.2369 87.3296ZM113.793 119.68 140.948 150.732 130.598 159.783 103.443 128.732ZM150 161.082 177.154 192.133 166.804 201.185 139.649 170.134ZM186.206 202.484 213.36 233.535 203.01 242.587 175.855 211.535ZM222.412 243.886 249.566 274.937 239.216 283.989 212.061 252.937ZM258.618 285.288 285.772 316.339 275.422 325.391 248.267 294.339ZM294.824 326.69 321.978 357.741 311.628 366.793 284.473 335.741ZM331.03 368.092 331.858 369.038 321.507 378.09 320.679 377.143ZM337.683 354.812 367.414 420.142 306.631 381.966Z" fill="#000000" fill-rule="nonzero" fill-opacity="1" transform="matrix(-1 0 0 1 3361.41 937)"/><path d="M1148.5 1401.83C1148.5 1377.35 1168.35 1357.5 1192.83 1357.5L1780.17 1357.5C1804.65 1357.5 1824.5 1377.35 1824.5 1401.83L1824.5 1579.17C1824.5 1603.65 1804.65 1623.5 1780.17 1623.5L1192.83 1623.5C1168.35 1623.5 1148.5 1603.65 1148.5 1579.17Z" stroke="#000000" stroke-width="6.875" stroke-linecap="butt" stroke-linejoin="miter" stroke-miterlimit="8" stroke-opacity="1" fill="#FFFFFF" fill-rule="evenodd" fill-opacity="1"/><text fill="#000000" fill-opacity="1" font-family="Times New Roman,Times New Roman_MSFontService,sans-serif" font-style="normal" font-variant="normal" font-weight="400" font-stretch="normal" font-size="92" text-anchor="start" direction="ltr" writing-mode="lr-tb" unicode-bidi="normal" text-decoration="none" transform="matrix(1 0 0 1 1200.17 1469)">Schema linking</text><text fill="#000000" fill-opacity="1" font-family="Times New Roman,Times New Roman_MSFontService,sans-serif" font-style="normal" font-variant="normal" font-weight="400" font-stretch="normal" font-size="92" text-anchor="start" direction="ltr" writing-mode="lr-tb" unicode-bidi="normal" text-decoration="none" transform="matrix(1 0 0 1 1348.83 1579)">module</text><path d="M1902.5 1401.83C1902.5 1377.35 1922.35 1357.5 1946.83 1357.5L2534.17 1357.5C2558.65 1357.5 2578.5 1377.35 2578.5 1401.83L2578.5 1579.17C2578.5 1603.65 2558.65 1623.5 2534.17 1623.5L1946.83 1623.5C1922.35 1623.5 1902.5 1603.65 1902.5 1579.17Z" stroke="#000000" stroke-width="6.875" stroke-linecap="butt" stroke-linejoin="miter" stroke-miterlimit="8" stroke-opacity="1" fill="#FFFFFF" fill-rule="evenodd" fill-opacity="1"/><text fill="#000000" fill-opacity="1" font-family="Times New Roman,Times New Roman_MSFontService,sans-serif" font-style="normal" font-variant="normal" font-weight="400" font-stretch="normal" font-size="92" text-anchor="start" direction="ltr" writing-mode="lr-tb" unicode-bidi="normal" text-decoration="none" transform="matrix(1 0 0 1 1970.5 1469)">SQL generator</text><text fill="#000000" fill-opacity="1" font-family="Times New Roman,Times New Roman_MSFontService,sans-serif" font-style="normal" font-variant="normal" font-weight="400" font-stretch="normal" font-size="92" text-anchor="start" direction="ltr" writing-mode="lr-tb" unicode-bidi="normal" text-decoration="none" transform="matrix(1 0 0 1 2102.57 1579)">module</text><path d="M2655.5 1401.83C2655.5 1377.35 2675.35 1357.5 2699.83 1357.5L3288.17 1357.5C3312.65 1357.5 3332.5 1377.35 3332.5 1401.83L3332.5 1579.17C3332.5 1603.65 3312.65 1623.5 3288.17 1623.5L2699.83 1623.5C2675.35 1623.5 2655.5 1603.65 2655.5 1579.17Z" stroke="#000000" stroke-width="6.875" stroke-linecap="butt" stroke-linejoin="miter" stroke-miterlimit="8" stroke-opacity="1" fill="#FFFFFF" fill-rule="evenodd" fill-opacity="1"/><text fill="#000000" fill-opacity="1" font-family="Times New Roman,Times New Roman_MSFontService,sans-serif" font-style="normal" font-variant="normal" font-weight="400" font-stretch="normal" font-size="92" text-anchor="start" direction="ltr" writing-mode="lr-tb" unicode-bidi="normal" text-decoration="none" transform="matrix(1 0 0 1 2709.08 1469)">Self</text><text fill="#000000" fill-opacity="1" font-family="Times New Roman,Times New Roman_MSFontService,sans-serif" font-style="normal" font-variant="normal" font-weight="400" font-stretch="normal" font-size="92" text-anchor="start" direction="ltr" writing-mode="lr-tb" unicode-bidi="normal" text-decoration="none" transform="matrix(1 0 0 1 2856.32 1469)">-</text><text fill="#000000" fill-opacity="1" font-family="Times New Roman,Times New Roman_MSFontService,sans-serif" font-style="normal" font-variant="normal" font-weight="400" font-stretch="normal" font-size="92" text-anchor="start" direction="ltr" writing-mode="lr-tb" unicode-bidi="normal" text-decoration="none" transform="matrix(1 0 0 1 2886.69 1469)">Correction</text><text fill="#000000" fill-opacity="1" font-family="Times New Roman,Times New Roman_MSFontService,sans-serif" font-style="normal" font-variant="normal" font-weight="400" font-stretch="normal" font-size="92" text-anchor="start" direction="ltr" writing-mode="lr-tb" unicode-bidi="normal" text-decoration="none" transform="matrix(1 0 0 1 2851.17 1579)">Module</text><rect x="3537.5" y="1335.5" width="549" height="316" stroke="#000000" stroke-width="6.875" stroke-linecap="butt" stroke-linejoin="miter" stroke-miterlimit="8" stroke-opacity="1" fill="#FFFFFF" fill-opacity="1"/><text fill="#000000" fill-opacity="1" font-family="Times New Roman,Times New Roman_MSFontService,sans-serif" font-style="normal" font-variant="normal" font-weight="700" font-stretch="normal" font-size="92" text-anchor="start" direction="ltr" writing-mode="lr-tb" unicode-bidi="normal" text-decoration="none" transform="matrix(1 0 0 1 3669.53 1472)">Predict </text><text fill="#000000" fill-opacity="1" font-family="Times New Roman,Times New Roman_MSFontService,sans-serif" font-style="normal" font-variant="normal" font-weight="700" font-stretch="normal" font-size="92" text-anchor="start" direction="ltr" writing-mode="lr-tb" unicode-bidi="normal" text-decoration="none" transform="matrix(1 0 0 1 3719.42 1582)">SQL</text><path d="M1376.92 1658.67 1595.2 1658.67 1595.2 1759.67 1376.92 1759.67Z" fill="#C0C0C0" fill-rule="evenodd" fill-opacity="1"/><path d="M1188.98 1768.67 1783.14 1768.67 1783.14 1869.67 1188.98 1869.67Z" fill="#C0C0C0" fill-rule="evenodd" fill-opacity="1"/><text fill="#000000" fill-opacity="1" font-family="Times New Roman,Times New Roman_MSFontService,sans-serif" font-style="italic" font-variant="normal" font-weight="400" font-stretch="normal" font-size="92" text-anchor="start" direction="ltr" writing-mode="lr-tb" unicode-bidi="normal" text-decoration="none" transform="matrix(1 0 0 1 1376.92 1739)">Select</text><text fill="#000000" fill-opacity="1" font-family="Times New Roman,Times New Roman_MSFontService,sans-serif" font-style="italic" font-variant="normal" font-weight="400" font-stretch="normal" font-size="92" text-anchor="start" direction="ltr" writing-mode="lr-tb" unicode-bidi="normal" text-decoration="none" transform="matrix(1 0 0 1 1188.98 1849)">relevant schema</text><path d="M1976.26 1698.59 2503.34 1698.59 2503.34 1799.59 1976.26 1799.59Z" fill="#C0C0C0" fill-rule="evenodd" fill-opacity="1"/><text fill="#000000" fill-opacity="1" font-family="Times New Roman,Times New Roman_MSFontService,sans-serif" font-style="italic" font-variant="normal" font-weight="400" font-stretch="normal" font-size="92" text-anchor="start" direction="ltr" writing-mode="lr-tb" unicode-bidi="normal" text-decoration="none" transform="matrix(1 0 0 1 1976.26 1779)">Generate SQL</text><path d="M2781.81 1658.67 3205.26 1658.67 3205.26 1759.67 2781.81 1759.67Z" fill="#C0C0C0" fill-rule="evenodd" fill-opacity="1"/><path d="M2720.26 1768.67 3266.82 1768.67 3266.82 1869.67 2720.26 1869.67Z" fill="#C0C0C0" fill-rule="evenodd" fill-opacity="1"/><text fill="#000000" fill-opacity="1" font-family="Times New Roman,Times New Roman_MSFontService,sans-serif" font-style="italic" font-variant="normal" font-weight="400" font-stretch="normal" font-size="92" text-anchor="start" direction="ltr" writing-mode="lr-tb" unicode-bidi="normal" text-decoration="none" transform="matrix(1 0 0 1 2781.81 1739)">Revise SQL</text><text fill="#000000" fill-opacity="1" font-family="Times New Roman,Times New Roman_MSFontService,sans-serif" font-style="italic" font-variant="normal" font-weight="400" font-stretch="normal" font-size="92" text-anchor="start" direction="ltr" writing-mode="lr-tb" unicode-bidi="normal" text-decoration="none" transform="matrix(1 0 0 1 2720.26 1849)">using feedback</text><text fill="#000000" fill-opacity="1" font-family="Times New Roman,Times New Roman_MSFontService,sans-serif" font-style="italic" font-variant="normal" font-weight="400" font-stretch="normal" font-size="92" text-anchor="start" direction="ltr" writing-mode="lr-tb" unicode-bidi="normal" text-decoration="none" transform="matrix(1 0 0 1 1339.02 2023)">Each module is implemented via a different prompt </text></g></g></svg>